<svg width="1200" height="630" viewBox="0 0 1200 630" fill="none" xmlns="http://www.w3.org/2000/svg">
  <defs>
    <linearGradient id="sbL" x1="0%" y1="0%" x2="100%" y2="100%">
      <stop offset="0%" stop-color="#10b981"/>
      <stop offset="100%" stop-color="#0ea5e9"/>
    </linearGradient>
    <linearGradient id="sbR" x1="100%" y1="0%" x2="0%" y2="100%">
      <stop offset="0%" stop-color="#10b981"/>
      <stop offset="100%" stop-color="#0ea5e9"/>
    </linearGradient>
    <radialGradient id="bgSB" cx="50%" cy="50%" r="70%">
      <stop offset="0%" stop-color="#0c1015"/>
      <stop offset="100%" stop-color="#05070a"/>
    </radialGradient>
    <filter id="glowSB" x="-50%" y="-50%" width="200%" height="200%">
      <feGaussianBlur stdDeviation="8" result="coloredBlur"/>
      <feMerge>
        <feMergeNode in="coloredBlur"/>
        <feMergeNode in="SourceGraphic"/>
      </feMerge>
    </filter>
  </defs>
  <rect width="1200" height="630" fill="url(#bgSB)"/>
  <rect x="0" y="0" width="1200" height="2" fill="url(#sbL)" opacity="0.4"/>
  <rect x="0" y="628" width="1200" height="2" fill="url(#sbL)" opacity="0.2"/>
  <g transform="translate(600, 250)" filter="url(#glowSB)">
    <path d="M-70 -100 L0 115 L-18 115 L-88 -100 Z" fill="url(#sbL)"/>
    <path d="M70 -100 L0 115 L18 115 L88 -100 Z" fill="url(#sbR)"/>
    <rect x="-88" y="-110" width="176" height="6" rx="3" fill="url(#sbL)" opacity="0.5"/>
    <path d="M0 -12 L22 18 L0 48 L-22 18 Z" fill="#05070a" stroke="url(#sbL)" stroke-width="3"/>
  </g>
  <text x="600" y="440" font-family="'Outfit', 'SF Pro Display', -apple-system, sans-serif" font-size="72" font-weight="700" letter-spacing="-3" fill="#f1f5f9" text-anchor="middle">VULX</text>
  <text x="600" y="490" font-family="'Inter', -apple-system, sans-serif" font-size="18" font-weight="400" letter-spacing="8" fill="#64748b" text-anchor="middle">API SECURITY SCANNER</text>
</svg>
